<svg viewBox="0 0 24 24" xmlns="http://www.w3.org/2000/svg" xmlns:xlink="http://www.w3.org/1999/xlink" width="24.000000" height="24.000000" fill="none" customFrame="#000000">
	<rect id="Frame 211" width="24.000000" height="24.000000" x="0.000000" y="0.000000" fill="rgb(255,255,255)" fill-opacity="0" />
	<path id="Shape (Stroke)" d="M11.3325 1.89767L3.33366 5.89712L3.33255 5.89767C2.82288 6.15093 2.50045 6.6708 2.50005 7.23991L2.50005 16.7634C2.49608 17.3333 2.81541 17.8562 3.32416 18.1129L11.3237 22.1127C11.7462 22.3241 12.2438 22.3242 12.6663 22.1128L20.6664 18.1127L20.6675 18.1121C21.1773 17.8588 21.4997 17.3388 21.5 16.7696L21.5 7.24017C21.4997 6.67096 21.1773 6.15097 20.6675 5.89767L20.6664 5.89712L12.6675 1.89767C12.2474 1.68911 11.7527 1.6891 11.3325 1.89767ZM10.8875 1.00214C11.5883 0.653909 12.4118 0.653909 13.1125 1.00214L13.1137 1.00269L21.1125 5.00214C21.9618 5.42439 22.4995 6.29114 22.5 7.23964L22.5 16.7699C22.4995 17.7183 21.9624 18.5851 21.1132 19.0073L13.1138 23.007C12.4097 23.3593 11.5806 23.3594 10.8764 23.0071L2.87644 19.0071L2.87506 19.0064C2.02685 18.579 1.49413 17.7079 1.50005 16.7583L1.50005 7.23991C1.50055 6.29145 2.03772 5.42471 2.88695 5.00244L10.8864 1.00269L10.8875 1.00214Z" fill="rgb(64.8125,64.8125,64.8125)" fill-rule="evenodd" />
	<path id="Shape (Stroke)" d="M1.87272 5.93641C1.99621 5.68943 2.29655 5.58931 2.54354 5.71281L11.9999 10.441L21.4563 5.71281C21.7033 5.58931 22.0037 5.68943 22.1271 5.93641C22.2506 6.1834 22.1505 6.48374 21.9035 6.60724L12.2235 11.4472C12.0828 11.5176 11.9171 11.5176 11.7763 11.4472L2.09633 6.60724C1.84934 6.48374 1.74923 6.1834 1.87272 5.93641Z" fill="rgb(64.8125,64.8125,64.8125)" fill-rule="evenodd" />
	<path id="Shape (Stroke)" d="M12 10.5C12.2761 10.5 12.5 10.7239 12.5 11L12.5 22.76C12.5 23.0361 12.2761 23.26 12 23.26C11.7239 23.26 11.5 23.0361 11.5 22.76L11.5 11C11.5 10.7239 11.7239 10.5 12 10.5Z" fill="rgb(64.8125,64.8125,64.8125)" fill-rule="evenodd" />
	<path id="Shape (Stroke)" d="M6.5529 3.2765C6.67639 3.02951 6.97673 2.9294 7.22372 3.0529L17.2237 8.0529C17.4707 8.17639 17.5708 8.47673 17.4473 8.72372C17.3238 8.97071 17.0235 9.07082 16.7765 8.94732L6.7765 3.94732C6.52951 3.82383 6.4294 3.52349 6.5529 3.2765Z" fill="rgb(64.8125,64.8125,64.8125)" fill-rule="evenodd" />
</svg>
